<svg viewBox="0 0 100 100" fill="none" xmlns="http://www.w3.org/2000/svg">
<path fill-rule="evenodd" clip-rule="evenodd" d="M50 0C77.6142 0 100 22.3858 100 50C100 77.6142 77.6142 100 50 100C22.3858 100 0 77.6142 0 50C0 22.3858 22.3858 0 50 0ZM20 22.9668L24.291 24.04V52.7842L20 53.8584V56.8252H35.2236V53.8584L30.9326 52.7842V39.793H46.7178L46.6416 75.96L42.3496 77.0332V80H57.5732V77.0332L53.2822 75.96V62.9688H69.0674V75.96L64.7764 77.0332V80H80V77.0332L75.709 75.96V47.2158L80 46.1416V43.1748H64.7764V46.1416L69.0674 47.2158V59.2354H53.2822L53.3584 24.04L57.6504 22.9668V20H42.4268V22.9668L46.7178 24.04V36.0596H30.9326V24.04L35.2236 22.9668V20H20V22.9668Z" fill="currentColor"/>
</svg>
